<svg width="54" height="65" viewBox="0 0 54 65" fill="none" xmlns="http://www.w3.org/2000/svg">
<rect width="54" height="65" fill="#0A2540"/>
<path d="M5.24686 52.6H6.99886L11.5709 58.552V52.6H13.2029V61H12.0749L6.87886 54.16V61H5.24686V52.6ZM18.1063 61.12C17.3783 61.12 16.7423 60.996 16.1983 60.748C15.6623 60.5 15.2463 60.148 14.9503 59.692C14.6623 59.228 14.5183 58.684 14.5183 58.06C14.5183 57.436 14.6623 56.896 14.9503 56.44C15.2463 55.976 15.6623 55.62 16.1983 55.372C16.7423 55.124 17.3783 55 18.1063 55C18.8343 55 19.4663 55.124 20.0023 55.372C20.5463 55.62 20.9623 55.976 21.2503 56.44C21.5383 56.896 21.6823 57.436 21.6823 58.06C21.6823 58.684 21.5383 59.228 21.2503 59.692C20.9623 60.148 20.5463 60.5 20.0023 60.748C19.4663 60.996 18.8343 61.12 18.1063 61.12ZM18.1063 60.544C18.7303 60.544 19.2223 60.324 19.5823 59.884C19.9423 59.436 20.1223 58.828 20.1223 58.06C20.1223 57.292 19.9423 56.688 19.5823 56.248C19.2223 55.8 18.7303 55.576 18.1063 55.576C17.4823 55.576 16.9903 55.8 16.6303 56.248C16.2703 56.688 16.0903 57.292 16.0903 58.06C16.0903 58.828 16.2703 59.436 16.6303 59.884C16.9903 60.324 17.4823 60.544 18.1063 60.544ZM22.9943 55.12H24.5303V56.032C24.6743 55.72 24.9223 55.472 25.2743 55.288C25.6263 55.096 26.0263 55 26.4743 55C27.0583 55 27.5343 55.116 27.9023 55.348C28.2783 55.572 28.5463 55.892 28.7063 56.308C28.8823 55.852 29.1463 55.52 29.4983 55.312C29.8583 55.104 30.2743 55 30.7463 55C31.5623 55 32.1743 55.188 32.5823 55.564C32.9983 55.94 33.2063 56.488 33.2063 57.208V61H31.6463V57.1C31.6463 56.612 31.5343 56.236 31.3103 55.972C31.0863 55.708 30.7743 55.576 30.3743 55.576C29.8943 55.576 29.5183 55.792 29.2463 56.224C28.9823 56.648 28.8503 57.252 28.8503 58.036V61H27.3383V57.616C27.3383 56.96 27.2223 56.456 26.9903 56.104C26.7583 55.752 26.4263 55.576 25.9943 55.576C25.5383 55.576 25.1823 55.76 24.9263 56.128C24.6703 56.488 24.5423 57 24.5423 57.664V61H22.9943V55.12ZM36.9796 61.12C36.1476 61.12 35.5236 60.964 35.1076 60.652C34.6916 60.34 34.4836 59.892 34.4836 59.308C34.4836 58.7 34.7316 58.232 35.2276 57.904C35.7316 57.576 36.4556 57.412 37.3996 57.412H39.0316V57.004C39.0316 56.54 38.8996 56.188 38.6356 55.948C38.3716 55.7 37.9916 55.576 37.4956 55.576C37.0156 55.576 36.6316 55.696 36.3436 55.936C36.0636 56.168 35.8916 56.508 35.8276 56.956H34.6516C34.7396 56.324 35.0396 55.84 35.5516 55.504C36.0636 55.168 36.7556 55 37.6276 55C38.5796 55 39.3076 55.184 39.8116 55.552C40.3236 55.92 40.5796 56.448 40.5796 57.136V59.056C40.5796 59.76 40.6396 60.408 40.7596 61H39.3076C39.2276 60.696 39.1716 60.404 39.1396 60.124C38.9076 60.468 38.6036 60.72 38.2276 60.88C37.8516 61.04 37.4356 61.12 36.9796 61.12ZM37.3276 60.568C37.8476 60.568 38.2596 60.42 38.5636 60.124C38.8756 59.82 39.0316 59.428 39.0316 58.948V58H37.8316C37.2396 58 36.7916 58.112 36.4876 58.336C36.1836 58.552 36.0316 58.872 36.0316 59.296C36.0316 59.712 36.1396 60.028 36.3556 60.244C36.5796 60.46 36.9036 60.568 37.3276 60.568ZM45.1114 61.12C44.5034 61.12 43.9594 60.992 43.4794 60.736C42.9994 60.472 42.6234 60.108 42.3514 59.644C42.0794 59.172 41.9434 58.64 41.9434 58.048C41.9434 57.432 42.0674 56.896 42.3154 56.44C42.5634 55.976 42.9154 55.62 43.3714 55.372C43.8354 55.124 44.3674 55 44.9674 55C45.4874 55 45.9434 55.1 46.3354 55.3C46.7274 55.5 47.0314 55.784 47.2474 56.152V52.804H48.7954V61H47.2474V60.04C46.7994 60.76 46.0874 61.12 45.1114 61.12ZM45.3634 60.556C45.9394 60.556 46.3954 60.332 46.7314 59.884C47.0754 59.436 47.2474 58.832 47.2474 58.072C47.2474 57.296 47.0754 56.68 46.7314 56.224C46.3874 55.768 45.9194 55.54 45.3274 55.54C44.7514 55.54 44.3034 55.76 43.9834 56.2C43.6634 56.632 43.5034 57.244 43.5034 58.036C43.5034 58.82 43.6674 59.436 43.9954 59.884C44.3314 60.332 44.7874 60.556 45.3634 60.556Z" fill="white"/>
<path d="M27 4C14.3058 4 4 14.3058 4 27C4 39.6942 14.3058 50 27 50C39.6712 50 49.9591 39.731 49.9963 27.0681C49.9987 27.0455 49.9999 27.0227 50 27C50 26.9796 49.9991 26.9592 49.9972 26.9388C49.9641 14.2727 39.6739 4 27 4ZM27 5.38C28.0079 5.38 28.9982 5.45452 29.9693 5.58746C29.9279 5.64266 30.0411 5.76686 30.4367 5.99364L30.9072 6.15372C31.496 6.08058 31.2453 5.8791 30.8566 5.7296C32.2777 5.98481 33.6693 6.38274 35.0104 6.91732C34.6388 7.00104 34.073 7.04704 33.5136 7.02496C33.5274 8.13402 34.0196 11.0973 35.7078 10.5596C35.4079 10.6254 36.6609 11.8655 36.0132 12.073C35.6682 14.3914 33.7891 10.5269 32.8356 10.5775C31.4096 10.8181 33.106 11.5228 32.5918 11.8683C31.2426 13.0275 33.7592 14.2433 33.5559 12.2952C33.7215 13.8656 34.2533 13.8173 35.5261 13.7354C32.6184 14.2267 37.1453 15.3533 35.6751 16.2944C34.2183 16.1601 33.4018 16.7038 34.2252 18.1298C33.8388 19.45 35.1438 19.508 35.5914 19.9643L36.0804 19.9192L36.3969 19.8778C36.3845 19.8764 36.3711 19.8792 36.3592 19.8774C38.1748 19.3185 37.2359 15.6849 39.1711 15.9223C38.7659 17.3276 41.0024 18.6657 39.8027 16.6275C38.9848 15.5943 42.4555 17.3708 40.9265 17.8787C42.4137 19.8419 41.3653 16.0451 42.473 17.0769C43.1929 18.3308 44.0361 17.3975 44.2321 17.3506C44.7086 17.2176 45.4276 17.4269 45.6167 17.5387C47.4406 19.2803 43.8889 18.5581 43.8365 19.8898C44.0297 20.7422 41.8861 19.6621 41.5654 19.4298C40.6257 16.8966 38.4848 19.4233 36.9102 19.8304C36.8569 19.8723 35.5634 20.8815 35.4111 21.0154C35.0422 23.2349 33.2583 24.5841 32.5964 26.8293C32.4634 28.1265 32.8935 29.921 32.7132 31.3208C33.1327 33.1157 34.831 34.1433 36.3113 35.0219C37.4254 35.7395 38.5869 34.3651 39.7857 34.3494C40.8345 32.8066 42.5135 33.9377 43.462 33.8236C42.3695 35.544 44.2744 36.8734 43.7353 38.7346C42.8902 39.7687 42.6524 41.1427 42.1998 42.3769C38.2958 46.2363 32.9294 48.62 27 48.62C24.1265 48.6236 21.2812 48.053 18.6312 46.9419C19.1193 46.498 19.404 45.8365 20.0604 45.647C23.0417 46.3678 21.744 42.6791 23.768 41.8447C25.1246 39.3588 20.7946 38.9632 19.249 38.0579C16.6353 37.6633 16.8809 34.4819 14.5073 33.7937C12.5634 33.4842 13.2685 30.6828 11.8435 30.8327C10.6134 31.0613 10.1254 29.3685 9.43996 29.4895C9.27436 29.6643 8.5816 28.3533 7.8364 29.7977C5.7319 29.3317 7.20436 26.9154 6.31518 25.5625C5.94672 24.9429 7.36674 21.7657 5.84552 23.6121C5.78572 23.5063 5.74524 23.3623 5.7204 23.1935C5.91436 22.0977 6.19319 21.0187 6.55438 19.9661C6.7784 19.7173 7.036 19.5935 7.31982 19.6869C8.44452 19.4312 8.07054 21.198 8.16346 22.2924C9.01124 22.6558 8.61426 19.0843 10.3761 19.0011C11.5753 17.651 12.9659 16.5014 14.4241 15.5718C14.9926 15.9775 16.2162 15.9283 17.1758 15.0276C16.1067 14.8128 16.0299 13.9972 17.4587 13.6761C19.732 12.6991 16.4329 14.747 18.289 15.0423C20.3038 15.6357 18.5953 13.2906 19.5503 12.3734C18.5503 11.6926 20.1552 9.04574 18.4063 10.2215C19.0112 9.7891 18.0705 8.97766 18.6105 8.66118C18.8336 9.28678 19.9583 10.1461 20.3581 8.7035C21.4818 8.89532 21.3241 7.26738 21.9313 6.39154C24.781 5.38736 22.4216 8.15012 22.3144 9.52092C23.2317 12.1935 24.7787 8.49052 26.4084 8.39852C28.3901 8.46614 28.1638 6.57186 28.133 5.55802C27.7048 5.47819 27.273 5.41985 26.839 5.38322C26.8928 5.38322 26.9462 5.38 27 5.38ZM19.3543 7.66482C19.7191 7.6202 19.1437 8.41186 18.3571 8.5425C17.3083 9.41696 18.202 8.23522 18.6492 8.04294C19.0066 7.78718 19.2329 7.67954 19.3543 7.66482ZM35.4405 8.2435C35.4723 8.24074 35.522 8.24948 35.5969 8.27478C35.9346 8.83414 35.222 8.26098 35.4405 8.2435ZM16.9242 8.50662C17.7305 8.56504 16.8713 10.4469 15.9752 10.5398C15.4949 10.4952 15.167 11.2528 14.7957 11.5003C14.7589 11.6659 14.8252 8.90774 16.0791 8.80148C16.4632 8.57608 16.7379 8.49328 16.9242 8.50662ZM28.5336 8.55722C28.1224 8.57424 27.817 8.74766 27.9849 9.19478C28.225 9.42616 28.575 9.48228 28.8938 9.48412C30.858 9.24032 29.4385 8.5195 28.5336 8.55722ZM35.4911 8.91602C35.5785 8.9243 35.7823 9.00158 36.1614 9.19294C36.9268 10.1589 35.1139 8.88152 35.4911 8.91602ZM31.7086 9.62534C31.6837 9.63592 31.663 9.68238 31.6557 9.78404C32.0158 10.1888 31.8167 9.5775 31.7086 9.62534ZM33.0996 9.9593C33.0702 9.95148 33.0674 10.0154 33.1263 10.2169C33.5131 10.6576 33.187 9.98322 33.0996 9.9593ZM37.0372 9.9639C37.3537 9.96252 38.2392 10.5131 38.0607 11.1139C37.2056 11.8048 37.6016 11.4359 37.4346 10.67C36.8619 10.1635 36.8477 9.96482 37.0372 9.9639ZM12.1057 12.7579C12.1682 12.7653 12.2575 12.8403 12.3798 13.0247C12.0744 13.9622 11.8352 12.7262 12.1057 12.7579ZM16.3768 13.3017C16.4338 13.3021 16.5267 13.3477 16.6633 13.4765C16.3648 13.7019 16.2066 13.2994 16.3768 13.3017ZM42.5462 13.4673C42.6276 13.4576 42.7877 13.5717 43.0549 13.8803C43.3742 13.3559 45.0219 14.5731 43.5922 14.793C43.3226 15.8685 42.1952 13.5077 42.5466 13.4668L42.5462 13.4673ZM12.1388 13.8992C12.1687 13.8923 12.2004 13.9107 12.2322 13.9654C11.8034 15.2291 11.9295 13.9457 12.1388 13.8992ZM39.9619 15.1973C39.9767 15.1945 39.9919 15.1948 40.0065 15.1982C40.2641 15.241 41.2793 15.8183 41.6841 16.2204C41.9321 16.7751 40.8713 15.787 40.6565 15.8514C40.0557 15.4034 39.8901 15.2189 39.9619 15.1973ZM11.6098 15.2079C11.6622 15.2185 11.7032 15.2723 11.7147 15.3965C10.9386 15.9361 11.3825 15.1619 11.6098 15.2079ZM43.0632 16.236C43.1028 16.219 43.2168 16.2829 43.4524 16.5046C43.4938 17.0668 42.9441 16.2866 43.0632 16.236ZM38.3372 17.3004C38.2419 17.3156 38.0957 17.4817 37.896 17.9224C38.4526 18.5719 38.6228 17.2554 38.3372 17.3004ZM44.1962 17.7641C44.0922 17.7779 43.9832 17.8943 43.9105 18.1951C44.7753 18.6078 44.5081 17.7236 44.1962 17.7641ZM27.3878 19.0429C27.276 19.0328 27.1196 19.0797 26.9292 19.2375C27.6624 19.6165 27.7245 19.0724 27.3882 19.0425L27.3878 19.0429ZM28.4025 19.3884C28.3565 19.3714 28.2655 19.4031 28.1104 19.5333C28.2701 19.9326 28.5396 19.4399 28.4025 19.3884ZM32.0549 21.7243C32.0103 21.7348 31.9524 21.7841 31.8778 21.8958C32.1603 22.3632 32.2463 21.6783 32.0549 21.7243ZM8.97812 21.9211C8.93626 21.9216 8.91096 22.026 8.9358 22.3255C9.38476 22.86 9.10416 21.9198 8.97812 21.9211ZM8.72834 22.6801C8.68648 22.6732 8.62346 22.7979 8.53974 23.1691C8.79274 23.9056 8.85484 22.7018 8.72834 22.6801ZM7.44356 23.0684C6.5507 22.9764 8.19382 24.5528 8.25868 25.2479C9.91238 25.6941 8.0273 26.1991 9.4257 26.7626C11.5311 27.5207 10.2298 25.8275 9.33692 25.471C9.68698 24.9084 8.44866 24.4935 7.99372 23.2174C7.75038 23.1286 7.57144 23.0817 7.44356 23.0684ZM33.5269 23.4207C33.4322 23.4207 33.3278 23.5955 33.2836 24.1167C33.9009 24.2653 33.7358 23.4207 33.5269 23.4207ZM9.18144 23.7961C9.17562 23.7943 9.16949 23.7938 9.16346 23.7946C9.15744 23.7954 9.15165 23.7975 9.14648 23.8007C9.09818 23.8315 9.09496 23.9815 9.22928 24.3081L9.33324 24.3771C9.41926 24.0721 9.27298 23.8196 9.18144 23.7961ZM31.9542 23.8347C31.6837 23.8504 31.5094 23.9727 31.7012 24.2929L31.7822 24.3306H32.2417C33.6065 24.2855 32.5485 23.8007 31.9542 23.8347ZM7.9008 25.5114C7.77982 25.4857 7.7628 25.626 8.0526 26.115C8.93764 26.4227 8.1676 25.5676 7.9008 25.5114ZM5.43106 25.5804C5.73788 26.9094 5.93338 28.4545 6.50286 29.6225C6.87914 31.0521 7.15652 29.2526 7.25036 30.3792C7.5696 32.5071 6.2724 34.6995 7.8686 36.74C8.6276 38.7976 10.2946 40.2393 11.4612 42.031C7.6984 38.1412 5.38 32.8448 5.38 27C5.38 26.5225 5.4007 26.0501 5.43106 25.5804ZM10.935 26.8077C10.8246 26.8215 10.7261 26.9393 10.6994 27.2433C11.7133 27.6578 11.2666 26.7659 10.935 26.8077ZM12.5496 28.4844C12.5049 28.4665 12.4585 28.668 12.4281 29.2729L12.4465 29.6064C12.8053 30.565 12.6839 28.5373 12.5496 28.4844ZM28.6845 29.8345C28.57 29.8221 28.5686 29.9113 28.8869 30.2136C29.7365 30.3819 28.9366 29.8621 28.6845 29.8345ZM29.9201 30.1174C29.8672 30.1183 29.7982 30.1565 29.7117 30.2559C30.0641 30.8097 30.1487 30.1133 29.9201 30.1174ZM29.7149 30.7232C29.634 30.7361 29.5203 30.7899 29.3667 30.9063C29.7894 31.3626 30.0659 30.6662 29.7149 30.7232ZM29.1215 30.812C29.0783 30.8074 29.013 30.8709 28.9237 31.0627C29.1767 31.4519 29.2503 30.8258 29.1215 30.812ZM42.5627 35.096C42.5195 35.0914 42.4542 35.1544 42.3649 35.3467C42.6179 35.7359 42.692 35.1093 42.5627 35.096Z" fill="white"/>
</svg>
